<?xml version="1.0" standalone="no"?>
<!DOCTYPE svg PUBLIC "-//W3C//DTD SVG 20010904//EN"
 "http://www.w3.org/TR/2001/REC-SVG-20010904/DTD/svg10.dtd">
<svg version="1.0" xmlns="http://www.w3.org/2000/svg"
 width="512.000000pt" height="512.000000pt" viewBox="0 0 512.000000 512.000000"
 preserveAspectRatio="xMidYMid meet">

<g transform="translate(0.000000,512.000000) scale(0.100000,-0.100000)"
fill="#000000" stroke="none">
<path fill="red" d="M2125 4880 c-371 -56 -711 -197 -1010 -419 -197 -145 -474 -451 -554
-610 -91 -180 -132 -372 -132 -617 0 -297 72 -543 197 -672 29 -31 56 -54 58
-51 2 2 -8 38 -22 79 -25 70 -27 86 -26 245 0 155 3 178 27 258 73 237 197
412 376 529 92 60 151 78 262 78 120 0 232 -31 506 -138 266 -106 322 -124
434 -147 117 -24 270 -17 364 16 l70 25 -2 108 c-3 236 -69 456 -196 656 l-35
54 66 33 c122 59 206 150 333 357 l68 111 -37 19 c-61 31 -170 65 -279 86
-131 25 -302 25 -468 0z m378 -191 c107 -17 107 -17 45 -90 -72 -85 -117 -110
-278 -160 -74 -22 -140 -44 -146 -48 -7 -4 27 -60 87 -146 114 -162 177 -277
212 -390 29 -92 52 -229 41 -246 -10 -17 -151 -5 -249 21 -44 12 -192 66 -330
120 -137 54 -295 110 -350 125 -312 81 -549 13 -782 -223 -81 -82 -81 -82 -71
-45 36 134 147 301 312 472 175 180 347 306 561 411 310 152 708 236 948 199z"/>
<path fill="#fff" d="M3467 4330 c-151 -39 -270 -169 -298 -328 -30 -168 66 -349 226 -428
55 -27 69 -29 170 -29 100 0 115 2 167 28 164 81 258 254 230 424 -23 136
-106 248 -227 305 -53 24 -82 31 -148 34 -45 2 -99 -1 -120 -6z m128 -164 c91
-70 98 -192 16 -272 -86 -84 -228 -59 -280 48 -46 95 -9 201 84 244 49 23 136
13 180 -20z"/>
<path fill="red" d="M282 3190 c-45 -186 -56 -284 -56 -510 -1 -231 12 -339 60 -535 153
-618 551 -1129 1112 -1432 48 -25 88 -47 90 -48 1 -1 -18 -40 -42 -86 -40 -75
-83 -198 -99 -286 l-6 -31 72 -19 c111 -28 401 -25 516 5 121 32 243 84 342
147 l87 55 108 0 c484 0 1006 188 1392 502 430 349 719 868 797 1430 l12 88
-106 69 c-540 352 -1075 485 -1626 405 -380 -55 -714 -192 -1255 -515 -289
-172 -409 -233 -494 -248 -85 -16 -260 -13 -334 4 -324 77 -506 404 -540 975
l-8 125 -22 -95z m3219 -446 c288 -40 610 -162 880 -332 l67 -42 -13 -68
c-113 -587 -472 -1092 -983 -1380 -275 -154 -557 -239 -868 -262 -142 -10
-330 -2 -459 20 -91 16 -275 61 -275 69 1 21 252 179 346 218 l44 18 0 112 0
112 -62 -26 c-177 -72 -363 -185 -482 -294 l-68 -63 -95 48 c-398 203 -727
542 -914 940 -40 85 -123 306 -115 306 2 0 33 -17 67 -38 171 -104 372 -141
596 -112 161 22 239 58 603 275 494 294 792 423 1125 484 144 27 153 28 337
29 97 1 200 -4 269 -14z m-1698 -2198 c61 -19 131 -37 155 -41 23 -4 42 -10
42 -14 0 -11 -130 -48 -210 -61 -69 -11 -190 -14 -190 -5 0 14 80 155 88 155
1 0 53 -15 115 -34z"/>
<path fill="#fff" d="M3526 2535 c-81 -29 -122 -96 -114 -186 9 -90 77 -149 173 -149 154
0 229 185 120 295 -32 31 -87 55 -125 55 -8 -1 -32 -7 -54 -15z"/>
<path fill="red" d="M2855 2504 c-33 -8 -90 -24 -126 -34 l-66 -20 -17 -62 c-37 -141 -41
-176 -40 -333 1 -138 5 -173 27 -256 87 -328 270 -573 547 -732 l46 -26 107
60 c59 33 107 61 107 63 0 2 -46 26 -102 54 -218 107 -378 279 -467 504 -44
108 -62 215 -62 353 0 137 26 261 79 378 17 37 30 67 29 66 -1 0 -29 -7 -62
-15z"/>
<path fill="#fff" d="M3635 3209 c-44 -5 -105 -15 -135 -22 l-55 -13 65 -8 c378 -44 801
-207 1174 -451 28 -19 28 -18 -10 35 -21 30 -73 89 -114 130 -187 186 -439
304 -706 330 -111 11 -109 11 -219 -1z"/>
<path fill="#fff" d="M4837 2186 c-77 -393 -284 -818 -533 -1095 -25 -28 -42 -51 -37 -51
5 0 45 22 88 49 379 234 590 672 535 1106 -6 54 -15 106 -18 116 -4 10 -19
-42 -35 -125z"/>
</g>
</svg>
