<svg width="12" height="17" viewBox="0 0 12 17" fill="none" xmlns="http://www.w3.org/2000/svg">
<path d="M6 16.9999C1.99971 11.8234 0 8.14034 0 5.94989C-1.17411e-08 5.16853 0.155194 4.39481 0.456723 3.67293C0.758251 2.95104 1.20021 2.29512 1.75736 1.74261C2.31451 1.1901 2.97595 0.751826 3.7039 0.45281C4.43185 0.153795 5.21207 -0.000106812 6 -0.000106812C6.78793 -0.000106812 7.56815 0.153795 8.2961 0.45281C9.02405 0.751826 9.68549 1.1901 10.2426 1.74261C10.7998 2.29512 11.2417 2.95104 11.5433 3.67293C11.8448 4.39481 12 5.16853 12 5.94989C12 8.14034 10.0003 11.8234 6 16.9999ZM6 9.34989C6.90931 9.34989 7.78138 8.99168 8.42437 8.35406C9.06735 7.71643 9.42857 6.85163 9.42857 5.94989C9.42857 5.04816 9.06735 4.18335 8.42437 3.54573C7.78138 2.90811 6.90931 2.54989 6 2.54989C5.09069 2.54989 4.21862 2.90811 3.57563 3.54573C2.93265 4.18335 2.57143 5.04816 2.57143 5.94989C2.57143 6.85163 2.93265 7.71643 3.57563 8.35406C4.21862 8.99168 5.09069 9.34989 6 9.34989Z" fill="white"/>
</svg>
